<?xml version="1.0" standalone="no"?>
<!DOCTYPE svg PUBLIC "-//W3C//DTD SVG 20010904//EN"
 "http://www.w3.org/TR/2001/REC-SVG-20010904/DTD/svg10.dtd">
<svg version="1.0" xmlns="http://www.w3.org/2000/svg"
 width="1080.000000pt" height="1080.000000pt" viewBox="0 0 1080.000000 1080.000000"
 preserveAspectRatio="xMidYMid meet">
<metadata>
Created by potrace 1.14, written by Peter Selinger 2001-2017
</metadata>
<g transform="translate(0.000000,1080.000000) scale(0.100000,-0.100000)"
fill="#000000" stroke="none">
<path d="M0 5400 l0 -5400 5400 0 5400 0 0 5400 0 5400 -5400 0 -5400 0 0
-5400z m3528 603 l2 -2363 -225 0 c-208 0 -225 1 -225 18 0 9 -9 98 -20 197
-11 99 -20 186 -20 193 0 7 -48 -31 -107 -84 -191 -170 -407 -299 -603 -357
-126 -38 -190 -47 -335 -47 -355 0 -652 118 -885 351 -296 295 -450 750 -450
1324 0 358 56 620 194 900 83 168 166 285 296 415 200 202 452 334 720 381
105 18 326 16 431 -4 225 -44 449 -161 637 -333 40 -36 75 -65 76 -63 2 2 -2
130 -10 284 -8 171 -13 528 -14 918 l0 637 268 -2 267 -3 3 -2362z m5783 849
c106 -25 249 -79 249 -95 0 -10 -25 -107 -101 -389 l-9 -37 -58 20 c-207 72
-466 98 -663 65 -233 -38 -449 -149 -631 -324 -127 -123 -221 -241 -327 -415
l-41 -67 0 -845 0 -845 -250 0 -250 0 0 1445 0 1445 208 0 208 0 19 -302 c10
-167 20 -320 24 -341 l6 -38 75 103 c234 319 569 545 916 617 143 30 142 30
349 26 145 -3 210 -8 276 -23z m-3786 -947 c98 -25 165 -64 240 -140 104 -105
155 -224 155 -365 0 -141 -51 -260 -155 -365 -75 -76 -142 -115 -240 -140
-116 -30 -249 -14 -365 43 -71 34 -187 150 -222 222 -77 155 -77 325 0 480 35
72 151 188 222 223 115 56 249 72 365 42z"/>
<path d="M2085 6474 c-222 -33 -442 -155 -577 -321 -141 -173 -220 -349 -270
-596 -19 -96 -23 -143 -22 -322 0 -277 31 -458 110 -654 131 -326 372 -515
701 -550 176 -20 325 9 498 94 137 68 220 129 358 265 l107 105 0 806 0 807
-62 54 c-180 156 -340 244 -523 289 -78 18 -260 32 -320 23z"/>
</g>
</svg>
